<svg width="120" height="121" viewBox="0 0 120 121" fill="none" xmlns="http://www.w3.org/2000/svg">
<path d="M39.3751 87.9999C33.92 87.9999 29.7102 85.9294 26.7455 81.7884C23.7807 77.6474 22.3657 72.7467 22.5002 67.0865V66.6538L19.8656 62.6056C18.5644 60.58 17.0115 57.1312 15.207 52.2595C13.4025 47.3877 12.5002 41.8012 12.5002 35.5C12.5002 27.6218 14.3929 21.069 18.1781 15.8415C21.9634 10.6139 26.7374 8.00012 32.5001 8.00012C38.5898 8.00012 43.4455 10.8094 47.0672 16.428C50.6891 22.0465 52.5 28.4038 52.5 35.5C52.5 40.1089 51.8253 44.5112 50.4759 48.7067C49.1265 52.9022 47.8877 56.3301 46.7595 58.9904L48.3846 61.6731C49.2115 63.0642 50.1042 64.8943 51.0625 67.1635C52.0208 69.4328 52.5 71.6699 52.5 73.875C52.5 77.9198 51.2612 81.2852 48.7836 83.971C46.3061 86.6569 43.17 87.9999 39.3751 87.9999ZM27.1636 59.9424L39.4231 57.2405C40.5706 54.5738 41.787 51.2837 43.0722 47.3702C44.3575 43.4567 45.0001 39.5 45.0001 35.5C45.0001 30.3077 43.8302 25.6763 41.4905 21.6058C39.1507 17.5353 36.154 15.5 32.5001 15.5C28.8463 15.5 25.8495 17.5353 23.5097 21.6058C21.17 25.6763 20.0001 30.3077 20.0001 35.5C20.0001 40.5256 20.7533 45.2195 22.2597 49.5817C23.7662 53.9439 25.4008 57.3975 27.1636 59.9424ZM39.3751 80.5C40.9905 80.5 42.3319 79.9006 43.3991 78.7019C44.4665 77.5032 45.0001 75.8942 45.0001 73.875C45.0001 72.4583 44.6427 70.9199 43.928 69.2596C43.2132 67.5994 42.3623 65.9936 41.3751 64.4422L30.0001 67.0384C30.0001 70.8845 30.7694 74.0897 32.3079 76.6539C33.8463 79.218 36.202 80.5 39.3751 80.5ZM80.6251 113C76.8303 113 73.6941 111.657 71.2166 108.971C68.739 106.285 67.5002 102.92 67.5002 98.875C67.5002 96.6699 67.9794 94.4327 68.9377 92.1635C69.8961 89.8943 70.7887 88.0642 71.6156 86.6731L73.2407 83.9904C72.1446 81.3622 70.9138 77.9423 69.5484 73.7308C68.183 69.5192 67.5002 65.1089 67.5002 60.5C67.5002 53.4038 69.3112 47.0465 72.933 41.428C76.5548 35.8094 81.4105 33.0001 87.5001 33.0001C93.2629 33.0001 98.0369 35.6139 101.822 40.8415C105.607 46.069 107.5 52.6218 107.5 60.5C107.5 66.8012 106.606 72.3588 104.817 77.1729C103.029 81.987 101.468 85.4389 100.135 87.5287L97.5 91.6537V92.1346C97.5833 97.6987 96.1474 102.567 93.1923 106.74C90.2372 110.913 86.0481 113 80.6251 113V113ZM92.6443 85.2309C94.7598 81.9167 96.5146 78.2756 97.9088 74.3076C99.303 70.3397 100 65.7372 100 60.5C100 55.3077 98.8303 50.6763 96.4905 46.6058C94.1508 42.5353 91.154 40.5 87.5001 40.5C83.8463 40.5 80.8495 42.5353 78.5098 46.6058C76.17 50.6763 75.0001 55.3077 75.0001 60.5C75.0001 64.5 75.6508 68.4359 76.9521 72.3078C78.2534 76.1796 79.4617 79.4905 80.5771 82.2405L92.6443 85.2309ZM80.6251 105.5C83.734 105.5 86.0738 104.234 87.6444 101.702C89.2149 99.1699 90.0001 96.0609 90.0001 92.375L78.6733 89.3941C77.9104 90.7531 77.1075 92.2708 76.2646 93.9471C75.4216 95.6234 75.0001 97.266 75.0001 98.875C75.0001 100.574 75.537 102.103 76.6108 103.462C77.6844 104.821 79.0225 105.5 80.6251 105.5Z" fill="#7019FF"/>
</svg>
